#!OML:ASF F:\VICON\USERDATA\INSTALL\rory3\rory3.ASF
:FULLY-SPECIFIED
:DEGREES
106
root 0.2803060765794902 17.608248855355104 62.04722418815592 1.0239756257514794 2.8425801029915325 0.5512749441950571
lfemur -7.189151083996149 -4.201249285747329 -23.12491733368385
ltibia 29.814472195599244
lfoot -11.077783349832776 -1.1178098647553876
ltoes 1.6206806912088805
rfemur -23.481077063738333 1.6974704092139206 22.353637409894475
rtibia 62.85382491333729
rfoot 9.022266411046552 -13.040087987640408
rtoes 6.564210818207217
lowerback 12.557870943541577 -0.13260157125044192 -0.42680521174123176
upperback -1.1322256077346544 -0.09897845851097298 1.5873582736820726
thorax -7.349911235929968 0.0316383964811614 3.2454145220759907
lowerneck -17.847301031474895 -2.823029023028737 -3.658383797429393
upperneck 18.635710127321214 -3.254630584528972 2.1690545654708995
head 8.719281589270716 -1.5018554155612178 0.9765845337303009
lclavicle -2.262546165319683e-15 6.841266746607468e-16
lhumerus -39.585285636382075 -8.000145559640174 90.08347432070211
lradius 63.69492453669846
lwrist 17.282473601226215
lhand -26.047575327888445 14.023555959876603
lfingers 7.125019999999999
lthumb 0.2594748241614573 43.56493941070492
rclavicle -2.2612254507504196e-15 6.850653912056038e-16
rhumerus -40.068804653050705 -6.661760782020545 -86.86265682116877
rradius 60.39387090040837
rwrist 2.710862445138918
rhand -16.94059642274727 30.398590063630614
rfingers 7.125019999999999
rthumb 8.575352507636659 0.7377871886144854
107
root 0.2820461091859034 17.53513780307589 62.303957382005684 1.2146829700863058 2.406362088219165 1.9662628192177416
lfemur -4.655746402137862 -3.9715581841834826 -24.828082461604804
ltibia 29.229393906677956
lfoot -11.132080005524703 -1.6793070581226566
ltoes 0.6556541687881907
rfemur -25.88942744181161 1.9461506450817734 20.63661445549761
rtibia 61.32004720236974
rfoot 8.282888752081632 -11.663960931486265
rtoes 5.3798042434916375
lowerback 12.59843233595885 0.05159023701858134 -1.721298006422484
upperback -0.9199285657955485 -0.07929545337842359 1.2815630068300767
thorax -7.333818729691143 0.057613130703457305 3.545239077146446
lowerneck -17.91867564111277 -2.8085855745873705 -3.6021428244470393
upperneck 18.529954456195334 -3.252643725797703 2.2451779771495235
head 8.701703492534781 -1.4895025608163026 0.9942112540137631
lclavicle -2.2612282125325237e-15 6.850493767627169e-16
lhumerus -37.64617244578796 -9.16874940819544 90.09667000048005
lradius 65.0427596288673
lwrist 17.96251156563866
lhand -26.714761136166647 14.158418063837223
lfingers 7.125019999999999
lthumb -0.2770033490869092 43.798433643721495
rclavicle -2.2611962429753834e-15 6.850858722637855e-16
rhumerus -40.178774639954376 -6.7946394546262425 -86.84485743151546
rradius 60.37981104218969
rwrist 2.4634367123652416
rhand -17.06149957914201 30.288444800470888
rfingers 7.125019999999999
rthumb 8.509579324205088 0.6849284386162183
108
root 0.2748058944570434 17.45091644446082 62.56274012180967 1.517492619989108 2.34270474571404 2.3229503696892357
lfemur -2.0140454250104742 -4.148926672163083 -25.375204589302314
ltibia 28.315980775757485
lfoot -10.940404934286573 -2.3667562413425016
ltoes -0.21365305668294887
rfemur -28.23933034299142 2.2863344600307007 19.905109036681598
rtibia 59.151685755006376
rfoot 6.933615297256317 -11.738741577128668
rtoes 4.893966275816467
lowerback 12.576087455891555 0.04582219108572139 -2.078516289538398
upperback -0.7757912263105551 -0.17140390913269843 1.212565456115105
thorax -7.3377925974905756 0.005869847706590492 3.549148932327002
lowerneck -18.020952547398913 -2.8033614386622636 -3.546359123014791
upperneck 18.488212653915365 -3.2656620297269643 2.253385660146293
head 8.718907166711617 -1.4932408551126573 0.9792646023230251
lclavicle -2.2624855351976722e-15 6.841671839668111e-16
lhumerus -35.9676525560634 -10.075355527841108 90.00160747031416
lradius 66.5791108271562
lwrist 18.496247740245273
lhand -27.022051547935902 14.326889761992444
lfingers 7.125019999999999
lthumb -0.6513793704929447 43.789509993393686
rclavicle -2.2607527664745232e-15 6.853967901499613e-16
rhumerus -40.28810741359784 -6.986377303902949 -86.88918831759226
rradius 60.39543826736974
rwrist 2.041652824171817
rhand -17.12649379091998 30.234974576451467
rfingers 7.125019999999999
rthumb 8.467747128718509 0.6630710283663738
109
root 0.260587883437575 17.412617039772286 62.59113250436594 1.7905803992043379 2.2731061111749344 1.7620173813610083
lfemur 0.24596130064692545 -4.467944586970962 -24.95673495420322
ltibia 27.862054153345376
lfoot -10.22228353862473 -3.191867690666701
ltoes -2.35118445321395
rfemur -30.16344042407905 2.846603704063381 20.22257081618452
rtibia 56.29913514691648
rfoot 4.817222057492788 -12.906688020816379
rtoes 3.4103048420591233
lowerback 12.53313437102653 -0.040542486730417826 -1.667324990497901
upperback -0.6817715533223745 -0.22430110730605057 1.3852066067346809
thorax -7.3920850676779635 -0.03823357345120704 3.3172144032660364
lowerneck -18.083398950947267 -2.8133732394967303 -3.526123287033972
upperneck 18.513609249598172 -3.273795555093404 2.257115436510696
head 8.757499741520883 -1.4943722673124824 0.9670373167944756
lclavicle -2.262512228318959e-15 6.841479899061005e-16
lhumerus -34.72668364205911 -10.465624845046381 89.86612933398621
lradius 68.24105028387694
lwrist 18.567990973341153
lhand -27.031880005426775 14.37379974587979
lfingers 7.125019999999999
lthumb -0.7553637135406828 43.631862573263795
rclavicle -2.2604518895521766e-15 6.856076640743758e-16
rhumerus -40.36700817075438 -7.230672700064849 -86.89210816501915
rradius 60.33630150223409
rwrist 1.530309555766872
rhand -17.205549468865943 30.151702346154885
rfingers 7.125019999999999
rthumb 8.433288779286546 0.6102170822354018
110
root 0.24086846509763177 17.406183530774477 62.518908658166715 1.8314739388883166 2.2266814316156402 1.5049021280712367
lfemur 2.2412783967193803 -4.748282831631947 -24.72077083409247
ltibia 28.444491142497345
lfoot -8.409252956119605 -4.055478165356318
ltoes -5.058499317205761
rfemur -31.49105168927246 3.038326480013203 20.55277807574469
rtibia 53.27073935497839
rfoot 2.1256133333605893 -13.779335232825535
rtoes 2.510897511950725
lowerback 12.553404096981422 -0.17476085946065834 -1.4315983020742473
upperback -0.5530292830673591 -0.3798456744985379 1.5242050844376045
thorax -7.474707762005123 -0.11902921183223114 3.212178192008529
lowerneck -18.0939031357785 -2.8092261682748423 -3.4910333581970105
upperneck 18.52478679083413 -3.2679873820483483 2.257637069532998
head 8.780596429021728 -1.4856407201535689 0.963370105010924
lclavicle -2.262576750781205e-15 6.841041246090766e-16
lhumerus -34.142451464017995 -10.333189002646415 89.79613138302648
lradius 69.9238075094053
lwrist 18.707877436829257
lhand -26.9237039889715 14.360475865384567
lfingers 7.125019999999999
lthumb -0.7108551532312453 43.613490833209866
rclavicle -2.259601845379918e-15 6.862036269014238e-16
rhumerus -40.40333221743616 -7.298746582144691 -86.82788165057146
rradius 60.21286261607998
rwrist 1.3904448226355388
rhand -17.23332140691147 30.119796804024304
rfingers 7.125019999999999
rthumb 8.445252816827455 0.6624397435201183
